# File produced by Open Asset Import Library (http://www.assimp.sf.net)
# (assimp v3.1.151580502)

mtllib Crystal_04_LowPoly_Sp.mtl

# 40 vertex positions
v  -0.56142 2.15041 1.00406
v  0.0658639 2.92242 0.735449
v  -0.34419 2.98204 0.505146
v  -0.533515 2.62054 0.685627
v  0.573902 2.71717 0.438183
v  0.752146 2.0125 0.75619
v  0.88398 2.22753 0.5116
v  -0.341197 2.89886 -0.330607
v  0.504822 2.51571 -0.36152
v  0.318688 2.54898 -0.516105
v  -0.697185 2.27526 -0.678401
v  -0.931653 1.80354 -0.0796696
v  -0.925196 1.84075 0.116489
v  -0.591768 1.75121 1.14371
v  0.0650155 0.924535 1.16406
v  0.282996 0.922763 1.10447
v  0.846205 1.35674 0.844618
v  0.962109 2.07817 0.435008
v  0.738776 2.11611 -0.386178
v  0.268362 2.10533 -0.778002
v  0.768734 1.29118 -0.92322
v  0.60395 1.2804 -1.1201
v  -0.785885 1.01672 -1.09308
v  1.09727 0.806643 0.790452
v  1.21203 0.906147 0.585879
v  1.12071 0.580805 -0.0952548
v  0.955919 0.642525 0.848056
v  -1.0122 1.17787 -0.343727
v  -1.00942 0.789503 0.769486
v  -0.960607 0.742396 0.884897
v  -0.843597 0.983645 1.17439
v  -0.335153 0.618718 1.15622
v  -0.219456 0.162672 0.883061
v  0.591001 0.0988208 0.644907
v  0.707359 -0.0804701 -0.332005
v  0.544652 -0.0991076 -0.535605
v  0.502472 1.04032 -1.06482
v  -0.249498 0.260941 -0.882
v  -0.0924665 -0.0240202 -0.716104
v  -0.563406 0.227937 0.710304

# 74 UV coordinates
vt 0.34924 0.624351 0
vt 0.385718 0.495536 0
vt 0.436995 0.529638 0
vt 0.408307 0.580013 0
vt 0.389488 0.414653 0
vt 0.292053 0.380849 0
vt 0.333992 0.362822 0
vt 0.534141 0.479247 0
vt 0.486411 0.3682 0
vt 0.515366 0.381115 0
vt 0.624839 0.535815 0
vt 0.589832 0.633152 0
vt 0.565236 0.641635 0
vt 0.443488 0.587372 0
vt 0.445509 0.719853 0
vt 0.436429 0.663693 0
vt 0.308078 0.660966 0
vt 0.171141 0.652372 0
vt 0.155 0.627845 0
vt 0.160442 0.529638 0
vt 0.23771 0.490011 0
vt 0.359314 0.345052 0
vt 0.362863 0.321265 0
vt 0.472892 0.309479 0
vt 0.569773 0.341498 0
vt 0.634108 0.452189 0
vt 0.482445 0.308047 0
vt 0.557058 0.204099 0
vt 0.589939 0.209886 0
vt 0.558938 0.32989 0
vt 0.627576 0.231823 0
vt 0.770828 0.347033 0
vt 0.214654 0.341484 0
vt 0.160788 0.28386 0
vt 0.18703 0.263678 0
vt 0.323488 0.34118 0
vt 0.312539 0.172618 0
vt 0.393568 0.116104 0
vt 0.522093 0.19136 0
vt 0.131821 0.394522 0
vt 0.133541 0.294138 0
vt 0.759277 0.653689 0
vt 0.661778 0.685326 0
vt 0.565 0.799179 0
vt 0.555618 0.813582 0
vt 0.503957 0.810719 0
vt 0.244902 0.744877 0
vt 0.168207 0.717752 0
vt 0.12062 0.421664 0
vt 0.06221 0.451185 0
vt 0.01 0.403533 0
vt 0.0445975 0.299045 0
vt 0.282586 0.15852 0
vt 0.269946 0.132286 0
vt 0.280874 0.04388 0
vt 0.40658 0.0110163 0
vt 0.468601 0.0842742 0
vt 0.544072 0.00999993 0
vt 0.577641 0.015067 0
vt 0.600209 0.176826 0
vt 0.660484 0.221067 0
vt 0.803029 0.227812 0
vt 0.808638 0.771565 0
vt 0.812642 0.819711 0
vt 0.621059 0.868765 0
vt 0.105687 0.750735 0
vt 0.221355 0.790418 0
vt 0.133948 0.792856 0
vt 0.778692 0.108361 0
vt 0.821018 0.183901 0
vt 0.838808 0.902304 0
vt 0.827517 0.934333 0
vt 0.710181 0.99 0
vt 0.627283 0.918509 0

# 40 vertex normals
vn -0.054502 0.339108 0.939167
vn 0.271686 0.677399 0.683606
vn -0.571068 0.819981 -0.0388893
vn -0.881382 0.391643 0.264162
vn 0.605868 0.79547 -0.012307
vn 0.299996 0.23462 0.924638
vn 0.775634 0.390665 0.495755
vn -0.30367 0.902013 -0.30685
vn 0.703944 0.616692 -0.352354
vn 0.380497 0.764109 -0.520922
vn -0.621385 0.4398 -0.648427
vn -0.97068 0.206336 -0.123315
vn -0.931634 0.316977 0.177716
vn -0.476866 0.265127 0.838037
vn 0.143944 -0.0653277 0.987427
vn 0.29086 0.107219 0.950739
vn 0.374963 0.158482 0.913393
vn 0.949844 0.258469 -0.176039
vn 0.879525 0.326137 -0.346512
vn 0.0427558 0.419261 -0.906858
vn 0.898803 0.0628445 -0.433824
vn 0.1592 0.261915 -0.95187
vn -0.59474 -0.166535 -0.78648
vn 0.732179 -0.0226645 0.680735
vn 0.993483 0.10939 0.0320329
vn 0.942944 -0.120366 -0.310432
vn 0.530038 -0.487336 0.693948
vn -0.977542 -0.181533 -0.107036
vn -0.929334 -0.355713 -0.0990285
vn -0.8223 -0.402766 0.401998
vn -0.654145 -0.0185115 0.756143
vn -0.00215388 -0.374931 0.92705
vn -0.0645242 -0.771846 0.632526
vn 0.379968 -0.820098 0.427858
vn 0.508905 -0.859759 0.0427809
vn 0.444896 -0.605821 -0.659582
vn 0.204129 -0.363032 -0.909142
vn -0.185018 -0.450992 -0.873141
vn -0.58215 -0.797708 -0.157363
vn -0.484891 -0.870627 0.0830014

# Mesh 'ZBrush_defualt_group_ZBrush_defualt_group' with 76 faces
g ZBrush_defualt_group_ZBrush_defualt_group
usemtl Default
f  1/1/1 2/2/2 3/3/3
f  3/3/3 4/4/4 1/1/1
f  5/5/5 2/2/2 6/6/6
f  6/6/6 7/7/7 5/5/5
f  8/8/8 3/3/3 2/2/2
f  8/8/8 2/2/2 5/5/5
f  8/8/8 5/5/5 9/9/9
f  9/9/9 10/10/10 8/8/8
f  3/3/3 8/8/8 11/11/11
f  3/3/3 11/11/11 12/12/12
f  3/3/3 12/12/12 13/13/13
f  13/13/13 4/14/4 3/3/3
f  4/14/4 13/13/13 14/15/14
f  14/15/14 1/16/1 4/14/4
f  1/1/1 14/17/14 15/18/15
f  1/1/1 15/18/15 16/19/16
f  1/1/1 16/19/16 17/20/17
f  17/20/17 6/21/6 1/1/1
f  5/5/5 7/22/7 18/23/18
f  5/5/5 18/23/18 19/24/19
f  19/24/19 9/9/9 5/5/5
f  20/25/20 11/26/11 8/8/8
f  8/8/8 10/10/10 20/25/20
f  9/9/9 19/27/19 21/28/21
f  9/9/9 21/28/21 22/29/22
f  9/9/9 22/29/22 20/30/20
f  20/30/20 10/10/10 9/9/9
f  11/26/11 20/25/20 22/31/22
f  22/31/22 23/32/23 11/26/11
f  6/6/6 17/33/17 24/34/24
f  6/6/6 24/34/24 25/35/25
f  6/6/6 25/35/25 18/36/18
f  18/36/18 7/7/7 6/6/6
f  18/23/18 25/37/25 26/38/26
f  18/23/18 26/38/26 21/39/21
f  21/39/21 19/24/19 18/23/18
f  17/33/17 16/40/16 27/41/27
f  27/41/27 24/34/24 17/33/17
f  12/12/12 11/11/11 23/42/23
f  23/42/23 28/43/28 12/12/12
f  29/44/29 13/13/13 12/12/12
f  12/12/12 28/43/28 29/44/29
f  13/13/13 29/44/29 30/45/30
f  13/13/13 30/45/30 31/46/31
f  31/46/31 14/15/14 13/13/13
f  14/17/14 31/47/31 32/48/32
f  32/48/32 15/18/15 14/17/14
f  15/49/15 32/50/32 33/51/33
f  15/49/15 33/51/33 34/52/34
f  15/49/15 34/52/34 27/41/27
f  27/41/27 16/40/16 15/49/15
f  24/53/24 27/54/27 34/55/34
f  24/53/24 34/55/34 35/56/35
f  24/53/24 35/56/35 26/38/26
f  26/38/26 25/37/25 24/53/24
f  21/28/21 26/57/26 35/58/35
f  21/28/21 35/58/35 36/59/36
f  21/28/21 36/59/36 37/60/37
f  37/60/37 22/29/22 21/28/21
f  22/31/22 37/61/37 38/62/38
f  38/62/38 23/32/23 22/31/22
f  23/42/23 38/63/38 39/64/39
f  23/42/23 39/64/39 40/65/40
f  23/42/23 40/65/40 30/45/30
f  23/42/23 30/45/30 29/44/29
f  29/44/29 28/43/28 23/42/23
f  33/66/33 32/48/32 31/47/31
f  33/66/33 31/47/31 30/67/30
f  30/67/30 40/68/40 33/66/33
f  37/61/37 36/69/36 39/70/39
f  39/70/39 38/62/38 37/61/37
f  40/65/40 39/64/39 36/71/36
f  40/65/40 36/71/36 35/72/35
f  40/65/40 35/72/35 34/73/34
f  34/73/34 33/74/33 40/65/40
f  1/1/1 6/21/6 2/2/2

